<?xml version="1.0" encoding="utf-8"?>
<!-- Generator: Adobe Illustrator 16.0.0, SVG Export Plug-In . SVG Version: 6.00 Build 0)  -->
<!DOCTYPE svg PUBLIC "-//W3C//DTD SVG 1.1//EN" "http://www.w3.org/Graphics/SVG/1.1/DTD/svg11.dtd">
<svg version="1.1" id="Layer_1" xmlns="http://www.w3.org/2000/svg" xmlns:xlink="http://www.w3.org/1999/xlink" x="0px" y="0px"
	 width="423.669px" height="103.035px" viewBox="0 0 423.669 103.035" enable-background="new 0 0 423.669 103.035"
	 xml:space="preserve">
<g>
	<path fill="#010101" d="M76.519,14.972c-2.738-2.281-15.76,5.453-20.866,10.074c-0.002,0.002-0.004,0.006-0.009,0.008
		c-3.069-1.124-6.107-1.729-8.792-1.729c-3.046,0-6.083,0.616-8.977,1.688c-5.15-4.574-18.235-12.187-20.951-9.881
		c-2.501,2.121,2.387,22.271,3.883,24.086c0.006,0.006,0.013,0.013,0.019,0.02c-1.616,2.828-2.561,5.74-2.608,8.469
		C17.88,67.001,44.588,73.673,46.852,73.878c2.069,0.188,28.695-7.986,28.695-25.111c0-3.52-0.983-6.799-2.635-9.759
		C74.454,36.737,79.005,17.042,76.519,14.972z M46.29,60.042c4.873-0.096,4.024,1.372,4.024,1.372
		c-4.684-1.587-1.177,3.075-3.695,2.86c-1.947-0.166,0.759-4.232-3.526-2.869C43.093,61.406,42.562,60.117,46.29,60.042z
		 M30.963,50.675c-2.593-1.75-3.275-5.604-3.275-5.604s4.367-1.72,6.381-0.735c3.822,1.871,4.015,5.695,4.015,5.695
		C38.074,49.877,33.864,52.632,30.963,50.675z M46.463,70.015c-2.194,0.028-4.697,0.115-3.667-0.12
		c3.653-0.829,3.926-3.47,3.926-3.47c0.267-0.003-0.003,2.676,3.736,3.78C51.472,70.503,48.655,69.986,46.463,70.015z
		 M61.321,51.077c-2.901,1.958-7.114-0.798-7.122-0.645c0,0,0.193-3.823,4.015-5.694c2.015-0.986,6.381,0.734,6.381,0.734
		S63.911,49.328,61.321,51.077z"/>
	<g>
		<path d="M95.439,29.411h5.089l11.518,22.7h0.246l11.295-22.7h4.999v29.598h-4.999V34.746h-0.156l-12.143,24.263h-1.027
			L97.984,34.947h-0.335v24.062h-2.21V29.411z"/>
		<path d="M137.737,29.411l10.268,15l10.223-15h2.701l-11.473,16.808v12.79h-4.979V46.687l-11.83-17.276H137.737z"/>
		<path d="M174.432,29.411h4.978v13.125l15.58-13.125h3.236L183.45,41.866l18.749,17.143h-6.339l-16.451-15.021v15.021h-4.978
			V29.411z"/>
		<path d="M218.761,59.701c-2.291,0-4.43-0.41-6.417-1.229c-1.986-0.817-3.713-1.938-5.179-3.358
			c-1.465-1.421-2.619-3.081-3.459-4.979c-0.842-1.896-1.262-3.924-1.262-6.082c0-1.413,0.189-2.775,0.569-4.085
			c0.38-1.309,0.919-2.529,1.618-3.66s1.544-2.161,2.533-3.092c0.99-0.93,2.088-1.726,3.293-2.388s2.511-1.176,3.917-1.541
			c1.406-0.364,2.868-0.547,4.386-0.547c1.533,0,2.998,0.183,4.397,0.547c1.398,0.365,2.704,0.879,3.917,1.541
			s2.311,1.458,3.293,2.388c0.982,0.931,1.826,1.961,2.533,3.092s1.25,2.352,1.629,3.66c0.38,1.31,0.57,2.672,0.57,4.085
			c0,1.443-0.19,2.827-0.57,4.151c-0.379,1.325-0.922,2.567-1.629,3.728c-0.707,1.161-1.551,2.218-2.533,3.17
			s-2.08,1.771-3.293,2.455c-1.213,0.685-2.519,1.213-3.917,1.585C221.759,59.514,220.294,59.701,218.761,59.701z M218.761,58.227
			c1.697,0,3.195-0.354,4.498-1.061c1.302-0.706,2.399-1.692,3.293-2.957c0.893-1.265,1.565-2.761,2.02-4.486
			c0.453-1.727,0.681-3.616,0.681-5.67c0-2.038-0.228-3.906-0.681-5.603c-0.454-1.696-1.127-3.158-2.02-4.386
			c-0.894-1.228-1.991-2.18-3.293-2.857c-1.303-0.677-2.801-1.016-4.498-1.016c-1.727,0-3.24,0.339-4.542,1.016
			c-1.302,0.678-2.396,1.63-3.281,2.857s-1.552,2.689-1.997,4.386c-0.447,1.696-0.67,3.564-0.67,5.603
			c0,2.054,0.223,3.943,0.67,5.67c0.445,1.726,1.111,3.222,1.997,4.486s1.979,2.251,3.281,2.957
			C215.521,57.874,217.034,58.227,218.761,58.227z"/>
		<path d="M256.796,59.701c-2.292,0-4.431-0.41-6.418-1.229c-1.986-0.817-3.713-1.938-5.178-3.358
			c-1.466-1.421-2.619-3.081-3.46-4.979c-0.841-1.896-1.261-3.924-1.261-6.082c0-1.413,0.189-2.775,0.568-4.085
			c0.38-1.309,0.919-2.529,1.619-3.66c0.699-1.131,1.543-2.161,2.533-3.092c0.989-0.93,2.087-1.726,3.292-2.388
			c1.206-0.662,2.511-1.176,3.917-1.541c1.406-0.364,2.869-0.547,4.387-0.547c1.532,0,2.998,0.183,4.396,0.547
			c1.398,0.365,2.705,0.879,3.918,1.541s2.311,1.458,3.293,2.388c0.981,0.931,1.826,1.961,2.533,3.092
			c0.706,1.131,1.25,2.352,1.629,3.66c0.379,1.31,0.569,2.672,0.569,4.085c0,1.443-0.19,2.827-0.569,4.151
			c-0.379,1.325-0.923,2.567-1.629,3.728c-0.707,1.161-1.552,2.218-2.533,3.17c-0.982,0.952-2.08,1.771-3.293,2.455
			c-1.213,0.685-2.52,1.213-3.918,1.585S258.328,59.701,256.796,59.701z M256.796,58.227c1.696,0,3.195-0.354,4.498-1.061
			c1.301-0.706,2.398-1.692,3.292-2.957c0.893-1.265,1.565-2.761,2.021-4.486c0.453-1.727,0.68-3.616,0.68-5.67
			c0-2.038-0.227-3.906-0.68-5.603c-0.455-1.696-1.128-3.158-2.021-4.386c-0.894-1.228-1.991-2.18-3.292-2.857
			c-1.303-0.677-2.802-1.016-4.498-1.016c-1.727,0-3.24,0.339-4.543,1.016c-1.302,0.678-2.396,1.63-3.281,2.857
			c-0.885,1.228-1.551,2.689-1.997,4.386s-0.67,3.564-0.67,5.603c0,2.054,0.224,3.943,0.67,5.67
			c0.446,1.726,1.112,3.222,1.997,4.486c0.886,1.265,1.979,2.251,3.281,2.957C253.556,57.874,255.069,58.227,256.796,58.227z"/>
		<path d="M279.83,29.411h4.978v27.678h14.91v1.92H279.83V29.411z"/>
		<path d="M318.222,44.321c0,2.069,0.312,3.926,0.938,5.569c0.625,1.645,1.484,3.036,2.578,4.174
			c1.094,1.139,2.384,2.009,3.872,2.611c1.487,0.604,3.103,0.904,4.844,0.904c1.042,0,2.046-0.201,3.013-0.603
			c0.968-0.401,1.864-0.927,2.69-1.573c0.825-0.647,1.565-1.377,2.221-2.188c0.655-0.812,1.19-1.633,1.607-2.467l2.099,1.339
			c-0.611,0.997-1.332,1.953-2.166,2.869c-0.834,0.915-1.797,1.726-2.891,2.433s-2.328,1.269-3.705,1.686
			c-1.377,0.416-2.912,0.625-4.609,0.625c-2.455,0-4.684-0.41-6.686-1.229c-2.001-0.817-3.716-1.927-5.145-3.325
			c-1.428-1.398-2.533-3.032-3.314-4.899s-1.172-3.843-1.172-5.927c0-1.384,0.179-2.734,0.535-4.051
			c0.357-1.317,0.875-2.552,1.552-3.705s1.503-2.21,2.478-3.17s2.076-1.785,3.304-2.478s2.57-1.228,4.028-1.607
			c1.459-0.379,3.014-0.569,4.666-0.569c1.576,0,3.031,0.213,4.363,0.637s2.545,0.985,3.639,1.686
			c1.094,0.699,2.068,1.506,2.924,2.421c0.855,0.916,1.588,1.872,2.199,2.869l-2.166,1.428c-1.235-2.396-2.619-4.147-4.151-5.256
			s-3.296-1.663-5.29-1.663c-1.711,0-3.312,0.312-4.799,0.938c-1.488,0.625-2.787,1.518-3.896,2.679
			c-1.108,1.16-1.979,2.57-2.611,4.229C318.537,40.367,318.222,42.238,318.222,44.321z"/>
		<path d="M361.099,28.741l13.929,30.268h-5.067l-4.508-9.866h-12.701l-4.665,9.866h-2.5l14.263-30.268H361.099z M353.622,47.223
			h10.914l-5.379-11.719L353.622,47.223z"/>
		<path d="M399.29,29.411v1.92h-10.714v27.678h-4.978V31.331h-10.714v-1.92H399.29z"/>
	</g>
	<g>
		<path d="M131.229,69.813l6.754,14.677h-2.457l-2.187-4.784h-6.158l-2.263,4.784h-1.212l6.916-14.677H131.229z M127.603,78.775
			h5.293l-2.609-5.683L127.603,78.775z"/>
		<path d="M144.542,70.137l5.422,11.419l5.033-11.419h1.147l-6.517,14.688h-0.627l-7.003-14.688H144.542z"/>
		<path d="M161.805,84.728c-0.751,0-1.456-0.141-2.116-0.422c-0.66-0.282-1.235-0.664-1.727-1.147
			c-0.49-0.483-0.878-1.052-1.163-1.705s-0.427-1.348-0.427-2.083c0-0.888,0.129-1.709,0.389-2.463s0.628-1.405,1.104-1.954
			c0.476-0.548,1.048-0.978,1.716-1.287c0.667-0.311,1.412-0.466,2.234-0.466c0.722,0,1.386,0.128,1.992,0.384
			c0.605,0.257,1.127,0.6,1.563,1.028c0.437,0.43,0.776,0.926,1.018,1.488c0.241,0.563,0.362,1.151,0.362,1.765h-8.258
			c0,0.743,0.096,1.433,0.287,2.067c0.19,0.635,0.459,1.184,0.806,1.646c0.347,0.461,0.758,0.822,1.233,1.082
			c0.477,0.26,1,0.39,1.57,0.39c0.477,0,0.934-0.077,1.375-0.232c0.439-0.155,0.838-0.359,1.195-0.612
			c0.357-0.252,0.662-0.541,0.914-0.865c0.253-0.325,0.43-0.66,0.531-1.007l0.639,0.281c-0.159,0.57-0.416,1.104-0.77,1.602
			c-0.354,0.498-0.766,0.934-1.238,1.305c-0.473,0.372-0.987,0.666-1.543,0.882C162.938,84.62,162.375,84.728,161.805,84.728z
			 M163.991,76.978c0-0.418-0.074-0.808-0.222-1.169c-0.147-0.36-0.353-0.673-0.612-0.937c-0.26-0.263-0.562-0.471-0.908-0.622
			c-0.347-0.151-0.719-0.228-1.115-0.228c-0.332,0-0.649,0.074-0.953,0.222c-0.303,0.148-0.573,0.354-0.811,0.617
			c-0.238,0.264-0.436,0.576-0.59,0.937c-0.156,0.361-0.248,0.751-0.277,1.169L163.991,76.978z"/>
		<path d="M171.741,73.201h0.336l0.292,2.262c0.173-0.331,0.39-0.635,0.649-0.909c0.26-0.273,0.547-0.512,0.86-0.714
			s0.646-0.359,0.996-0.471c0.35-0.112,0.705-0.168,1.065-0.168c0.325,0,0.645,0.043,0.959,0.13
			c0.313,0.087,0.607,0.224,0.881,0.411l-0.691,1.851c-0.145-0.158-0.297-0.286-0.455-0.384s-0.321-0.173-0.487-0.228
			c-0.166-0.054-0.335-0.088-0.509-0.103c-0.173-0.015-0.346-0.021-0.52-0.021c-0.273,0-0.543,0.039-0.807,0.119
			c-0.264,0.079-0.514,0.196-0.752,0.352s-0.458,0.354-0.66,0.595c-0.202,0.242-0.379,0.525-0.53,0.85v7.718h-2.197V73.807
			L171.741,73.201z"/>
		<path d="M179.469,87.109c0.087,0.036,0.183,0.083,0.286,0.141c0.105,0.058,0.221,0.114,0.348,0.168
			c0.125,0.055,0.265,0.1,0.416,0.136c0.152,0.036,0.321,0.054,0.509,0.054c0.231,0,0.447-0.064,0.649-0.194
			s0.387-0.293,0.553-0.487c0.165-0.195,0.312-0.408,0.443-0.639c0.129-0.231,0.238-0.447,0.324-0.649l0.747-1.667l-5.661-10.564
			h2.5l4.266,8.01l3.496-8.01h1.18l-5.661,13.032c-0.238,0.541-0.511,1.01-0.817,1.407c-0.307,0.396-0.633,0.725-0.979,0.984
			s-0.704,0.453-1.071,0.579c-0.368,0.127-0.726,0.189-1.072,0.189c-0.26,0-0.512-0.039-0.758-0.119
			c-0.244-0.079-0.45-0.184-0.616-0.313L179.469,87.109z"/>
		<path d="M205.489,70.137v0.931h-7.004v5.131h5.066v0.931h-5.066v7.36h-2.413V70.137H205.489z"/>
		<path d="M209.765,84.49h-2.209V68.384l1.57-0.628h0.639V84.49z"/>
		<path d="M218.337,84.728c-0.751,0-1.456-0.141-2.116-0.422c-0.66-0.282-1.235-0.664-1.727-1.147s-0.878-1.052-1.163-1.705
			s-0.428-1.348-0.428-2.083c0-0.888,0.13-1.709,0.39-2.463s0.628-1.405,1.104-1.954c0.476-0.548,1.047-0.978,1.715-1.287
			c0.668-0.311,1.412-0.466,2.235-0.466c0.722,0,1.386,0.128,1.991,0.384c0.606,0.257,1.127,0.6,1.564,1.028
			c0.436,0.43,0.775,0.926,1.018,1.488c0.241,0.563,0.362,1.151,0.362,1.765h-8.259c0,0.743,0.096,1.433,0.287,2.067
			s0.46,1.184,0.807,1.646c0.346,0.461,0.758,0.822,1.233,1.082c0.477,0.26,0.999,0.39,1.569,0.39c0.477,0,0.935-0.077,1.375-0.232
			c0.439-0.155,0.839-0.359,1.195-0.612c0.357-0.252,0.662-0.541,0.915-0.865c0.253-0.325,0.429-0.66,0.53-1.007l0.639,0.281
			c-0.158,0.57-0.415,1.104-0.769,1.602c-0.354,0.498-0.767,0.934-1.239,1.305c-0.473,0.372-0.986,0.666-1.543,0.882
			C219.47,84.62,218.907,84.728,218.337,84.728z M220.522,76.978c0-0.418-0.074-0.808-0.221-1.169
			c-0.148-0.36-0.353-0.673-0.612-0.937c-0.26-0.263-0.562-0.471-0.909-0.622c-0.346-0.151-0.718-0.228-1.115-0.228
			c-0.332,0-0.648,0.074-0.952,0.222c-0.303,0.148-0.573,0.354-0.812,0.617c-0.238,0.264-0.436,0.576-0.59,0.937
			c-0.155,0.361-0.248,0.751-0.276,1.169L220.522,76.978z"/>
		<path d="M224.863,73.406h2.598l7.663,11.084h-2.587L224.863,73.406z M226.064,84.49h-1.201l9.048-11.084h1.213L226.064,84.49z"/>
		<path d="M237.191,69.164c0-0.174,0.032-0.336,0.098-0.487s0.155-0.285,0.271-0.4s0.249-0.206,0.4-0.271
			c0.151-0.065,0.314-0.098,0.486-0.098c0.174,0,0.336,0.032,0.488,0.098c0.15,0.064,0.285,0.155,0.4,0.271s0.205,0.249,0.27,0.4
			c0.065,0.151,0.098,0.313,0.098,0.487c0,0.173-0.032,0.335-0.098,0.487c-0.064,0.151-0.154,0.285-0.27,0.4s-0.25,0.205-0.4,0.271
			c-0.152,0.064-0.314,0.097-0.488,0.097c-0.172,0-0.335-0.032-0.486-0.097c-0.151-0.065-0.285-0.155-0.4-0.271
			s-0.205-0.249-0.271-0.4C237.224,69.499,237.191,69.336,237.191,69.164z M237.364,73.829l1.549-0.628h0.638V84.49h-2.187V73.829z"
			/>
		<path d="M243.599,68.374l1.559-0.617h0.65v7.739c0.18-0.311,0.416-0.606,0.709-0.888c0.292-0.281,0.609-0.525,0.952-0.73
			c0.343-0.206,0.7-0.37,1.071-0.493c0.371-0.122,0.727-0.184,1.066-0.184c0.643,0,1.234,0.13,1.775,0.39s1.006,0.613,1.396,1.061
			c0.389,0.447,0.693,0.969,0.914,1.564c0.22,0.595,0.33,1.231,0.33,1.91c0,0.916-0.16,1.775-0.482,2.576
			c-0.32,0.801-0.761,1.499-1.32,2.094c-0.559,0.596-1.213,1.066-1.964,1.413s-1.552,0.52-2.403,0.52
			c-0.822,0-1.596-0.108-2.321-0.325c-0.726-0.216-1.369-0.544-1.933-0.984V68.374z M245.808,82.682
			c0.137,0.13,0.287,0.264,0.449,0.4c0.162,0.138,0.344,0.262,0.546,0.374c0.202,0.111,0.428,0.201,0.677,0.271
			c0.249,0.068,0.528,0.103,0.839,0.103c0.513,0,0.978-0.125,1.396-0.373c0.419-0.249,0.778-0.596,1.078-1.039
			c0.299-0.444,0.529-0.971,0.692-1.581c0.162-0.609,0.243-1.275,0.243-1.997c0-0.548-0.084-1.062-0.254-1.542
			s-0.4-0.898-0.693-1.256c-0.292-0.356-0.635-0.639-1.027-0.844c-0.395-0.206-0.814-0.309-1.262-0.309
			c-0.252,0-0.51,0.036-0.773,0.108s-0.514,0.169-0.752,0.292s-0.459,0.266-0.66,0.428c-0.203,0.162-0.369,0.337-0.498,0.524V82.682
			z"/>
		<path d="M259.369,84.49h-2.208V68.384l1.569-0.628h0.639V84.49z"/>
		<path d="M267.941,84.728c-0.751,0-1.456-0.141-2.116-0.422c-0.66-0.282-1.235-0.664-1.727-1.147
			c-0.49-0.483-0.878-1.052-1.163-1.705s-0.427-1.348-0.427-2.083c0-0.888,0.129-1.709,0.389-2.463s0.628-1.405,1.104-1.954
			c0.476-0.548,1.048-0.978,1.716-1.287c0.667-0.311,1.412-0.466,2.234-0.466c0.722,0,1.386,0.128,1.992,0.384
			c0.605,0.257,1.127,0.6,1.563,1.028c0.437,0.43,0.776,0.926,1.018,1.488c0.241,0.563,0.362,1.151,0.362,1.765h-8.258
			c0,0.743,0.096,1.433,0.287,2.067c0.19,0.635,0.459,1.184,0.806,1.646c0.347,0.461,0.758,0.822,1.233,1.082
			c0.477,0.26,1,0.39,1.57,0.39c0.477,0,0.934-0.077,1.375-0.232c0.439-0.155,0.838-0.359,1.195-0.612
			c0.357-0.252,0.662-0.541,0.914-0.865c0.253-0.325,0.43-0.66,0.531-1.007l0.639,0.281c-0.159,0.57-0.416,1.104-0.77,1.602
			c-0.354,0.498-0.766,0.934-1.238,1.305c-0.473,0.372-0.987,0.666-1.543,0.882C269.074,84.62,268.512,84.728,267.941,84.728z
			 M270.128,76.978c0-0.418-0.074-0.808-0.222-1.169c-0.147-0.36-0.353-0.673-0.612-0.937c-0.26-0.263-0.562-0.471-0.908-0.622
			c-0.347-0.151-0.719-0.228-1.115-0.228c-0.332,0-0.649,0.074-0.953,0.222c-0.303,0.148-0.573,0.354-0.811,0.617
			c-0.238,0.264-0.436,0.576-0.59,0.937c-0.156,0.361-0.248,0.751-0.277,1.169L270.128,76.978z"/>
		<path d="M285.552,83.917c0.354,0,0.703-0.049,1.05-0.146s0.656-0.242,0.931-0.433c0.274-0.191,0.494-0.426,0.66-0.704
			c0.166-0.277,0.249-0.601,0.249-0.969c0-0.439-0.114-0.831-0.341-1.174c-0.228-0.343-0.525-0.657-0.893-0.942
			c-0.369-0.284-0.789-0.554-1.262-0.806c-0.473-0.253-0.954-0.505-1.445-0.758c-0.49-0.253-0.972-0.518-1.444-0.796
			c-0.473-0.277-0.894-0.588-1.261-0.931c-0.368-0.343-0.666-0.726-0.893-1.147c-0.229-0.422-0.342-0.907-0.342-1.456
			c0-0.548,0.104-1.057,0.309-1.525c0.205-0.47,0.507-0.875,0.904-1.218c0.396-0.343,0.885-0.611,1.467-0.807
			c0.58-0.194,1.246-0.292,1.996-0.292c0.679,0,1.285,0.072,1.818,0.216c0.534,0.145,1.004,0.357,1.407,0.639
			c0.404,0.282,0.747,0.628,1.028,1.039c0.281,0.412,0.509,0.888,0.682,1.429l-1.233,0.563c-0.145-0.44-0.329-0.843-0.552-1.207
			c-0.225-0.364-0.491-0.677-0.801-0.937c-0.311-0.26-0.67-0.46-1.078-0.601c-0.407-0.141-0.867-0.211-1.379-0.211
			c-0.455,0-0.852,0.063-1.191,0.189c-0.339,0.126-0.622,0.292-0.85,0.498c-0.227,0.205-0.396,0.437-0.508,0.692
			c-0.113,0.256-0.168,0.518-0.168,0.785c0,0.375,0.115,0.72,0.346,1.033c0.23,0.314,0.537,0.61,0.92,0.888
			c0.383,0.278,0.817,0.547,1.305,0.807c0.486,0.26,0.982,0.523,1.488,0.79c0.505,0.267,1.001,0.545,1.488,0.833
			c0.486,0.289,0.922,0.604,1.305,0.947c0.382,0.343,0.688,0.718,0.92,1.126c0.23,0.407,0.346,0.864,0.346,1.369
			c0,0.57-0.107,1.105-0.324,1.607c-0.217,0.501-0.541,0.938-0.975,1.31c-0.433,0.371-0.971,0.665-1.613,0.882
			c-0.642,0.217-1.389,0.325-2.24,0.325c-0.692,0-1.309-0.076-1.851-0.228c-0.541-0.151-1.019-0.372-1.435-0.66
			c-0.414-0.289-0.77-0.641-1.065-1.056s-0.538-0.889-0.726-1.423l1.288-0.53c0.151,0.469,0.355,0.887,0.612,1.255
			c0.256,0.368,0.553,0.681,0.893,0.937c0.339,0.256,0.716,0.453,1.131,0.59S285.083,83.917,285.552,83.917z"/>
		<path d="M298.994,84.728c-0.852,0-1.634-0.148-2.349-0.444c-0.715-0.295-1.332-0.697-1.852-1.206s-0.925-1.104-1.217-1.786
			c-0.293-0.682-0.438-1.413-0.438-2.192c0-0.814,0.146-1.582,0.438-2.3c0.292-0.718,0.697-1.344,1.217-1.878
			s1.137-0.954,1.852-1.261s1.497-0.46,2.349-0.46c0.845,0,1.622,0.141,2.333,0.422c0.71,0.281,1.325,0.668,1.845,1.158
			c0.52,0.491,0.926,1.066,1.218,1.727c0.293,0.66,0.438,1.369,0.438,2.127c0,0.837-0.146,1.625-0.438,2.365
			c-0.292,0.739-0.698,1.385-1.218,1.938c-0.52,0.552-1.135,0.988-1.845,1.31C300.616,84.567,299.839,84.728,298.994,84.728z
			 M299.416,83.917c0.433,0,0.83-0.112,1.19-0.336c0.361-0.224,0.672-0.525,0.932-0.903c0.26-0.379,0.461-0.817,0.605-1.315
			s0.217-1.024,0.217-1.58c0-0.802-0.068-1.552-0.205-2.252c-0.138-0.699-0.361-1.31-0.672-1.829s-0.715-0.929-1.212-1.229
			c-0.498-0.299-1.104-0.449-1.818-0.449c-0.368,0-0.726,0.106-1.071,0.319c-0.347,0.213-0.652,0.504-0.915,0.871
			c-0.264,0.368-0.475,0.8-0.634,1.294c-0.158,0.494-0.238,1.02-0.238,1.575c0,0.808,0.086,1.565,0.255,2.272
			s0.419,1.324,0.747,1.851c0.328,0.527,0.729,0.944,1.201,1.251S298.81,83.917,299.416,83.917z"/>
		<path d="M310.164,84.49h-2.208V68.384l1.569-0.628h0.639V84.49z"/>
		<path d="M316.258,73.406v7.891c0,0.274,0.063,0.534,0.189,0.779c0.126,0.246,0.302,0.459,0.524,0.639
			c0.225,0.181,0.482,0.323,0.774,0.428s0.608,0.157,0.947,0.157c0.216,0,0.449-0.047,0.698-0.141
			c0.248-0.094,0.492-0.222,0.73-0.385c0.238-0.162,0.46-0.354,0.666-0.573c0.205-0.22,0.38-0.453,0.524-0.698v-8.097h2.187V84.49
			h-2.187v-2.078c-0.194,0.317-0.438,0.617-0.73,0.898s-0.608,0.526-0.947,0.736c-0.339,0.209-0.688,0.375-1.05,0.497
			c-0.361,0.123-0.703,0.185-1.028,0.185c-0.483,0-0.938-0.091-1.364-0.271c-0.426-0.181-0.797-0.426-1.114-0.736
			s-0.568-0.675-0.753-1.093c-0.184-0.419-0.275-0.862-0.275-1.332v-7.891H316.258z"/>
		<path d="M329.723,69.639h0.628v3.767h2.468v0.942h-2.468v7.804c0,0.166,0.03,0.321,0.092,0.466
			c0.061,0.144,0.145,0.271,0.249,0.378c0.104,0.108,0.229,0.193,0.374,0.255c0.144,0.062,0.303,0.092,0.476,0.092
			c0.245,0,0.469-0.062,0.671-0.184c0.202-0.123,0.379-0.274,0.531-0.455l0.551,0.368c-0.303,0.513-0.695,0.917-1.18,1.212
			c-0.482,0.296-1.082,0.444-1.797,0.444c-0.367,0-0.688-0.063-0.963-0.189s-0.5-0.303-0.676-0.53
			c-0.178-0.228-0.309-0.498-0.396-0.812c-0.087-0.314-0.13-0.662-0.13-1.045v-7.804h-1.927v-0.411l1.927-0.531v-3.149
			L329.723,69.639z"/>
		<path d="M336.194,69.164c0-0.174,0.033-0.336,0.098-0.487c0.065-0.151,0.155-0.285,0.271-0.4c0.115-0.115,0.248-0.206,0.4-0.271
			c0.15-0.065,0.313-0.098,0.486-0.098c0.174,0,0.336,0.032,0.487,0.098c0.151,0.064,0.285,0.155,0.4,0.271s0.206,0.249,0.271,0.4
			s0.098,0.313,0.098,0.487c0,0.173-0.033,0.335-0.098,0.487c-0.064,0.151-0.155,0.285-0.271,0.4s-0.249,0.205-0.4,0.271
			c-0.151,0.064-0.313,0.097-0.487,0.097c-0.173,0-0.336-0.032-0.486-0.097c-0.152-0.065-0.285-0.155-0.4-0.271
			c-0.116-0.115-0.206-0.249-0.271-0.4C336.228,69.499,336.194,69.336,336.194,69.164z M336.368,73.829l1.548-0.628h0.638V84.49
			h-2.186V73.829z"/>
		<path d="M347.712,84.728c-0.852,0-1.635-0.148-2.35-0.444c-0.714-0.295-1.331-0.697-1.851-1.206s-0.925-1.104-1.218-1.786
			c-0.292-0.682-0.438-1.413-0.438-2.192c0-0.814,0.146-1.582,0.438-2.3c0.293-0.718,0.698-1.344,1.218-1.878
			s1.137-0.954,1.851-1.261c0.715-0.307,1.498-0.46,2.35-0.46c0.844,0,1.621,0.141,2.332,0.422s1.326,0.668,1.846,1.158
			c0.52,0.491,0.926,1.066,1.217,1.727c0.293,0.66,0.439,1.369,0.439,2.127c0,0.837-0.146,1.625-0.439,2.365
			c-0.291,0.739-0.697,1.385-1.217,1.938c-0.52,0.552-1.135,0.988-1.846,1.31C349.333,84.567,348.556,84.728,347.712,84.728z
			 M348.134,83.917c0.433,0,0.83-0.112,1.19-0.336s0.671-0.525,0.931-0.903c0.26-0.379,0.462-0.817,0.605-1.315
			c0.145-0.498,0.217-1.024,0.217-1.58c0-0.802-0.068-1.552-0.205-2.252c-0.137-0.699-0.361-1.31-0.672-1.829
			c-0.31-0.52-0.714-0.929-1.211-1.229c-0.498-0.299-1.104-0.449-1.818-0.449c-0.369,0-0.727,0.106-1.072,0.319
			s-0.651,0.504-0.914,0.871c-0.264,0.368-0.475,0.8-0.634,1.294s-0.238,1.02-0.238,1.575c0,0.808,0.085,1.565,0.255,2.272
			c0.169,0.707,0.418,1.324,0.746,1.851c0.328,0.527,0.729,0.944,1.201,1.251S347.527,83.917,348.134,83.917z"/>
		<path d="M358.253,73.201h0.629v2.24c0.67-0.75,1.367-1.312,2.088-1.683c0.723-0.372,1.455-0.558,2.197-0.558
			c0.391,0,0.753,0.087,1.088,0.26c0.336,0.173,0.63,0.411,0.883,0.714c0.252,0.304,0.451,0.659,0.596,1.066
			c0.144,0.408,0.216,0.843,0.216,1.305v7.944h-2.197v-7.565c0-0.368-0.043-0.691-0.13-0.969c-0.086-0.278-0.209-0.511-0.367-0.698
			c-0.16-0.188-0.346-0.33-0.559-0.428s-0.449-0.146-0.709-0.146c-0.23,0-0.476,0.04-0.735,0.119c-0.26,0.08-0.524,0.189-0.796,0.33
			c-0.271,0.141-0.539,0.309-0.807,0.504c-0.267,0.194-0.523,0.411-0.768,0.649v8.204h-2.209V73.818L358.253,73.201z"/>
	</g>
</g>
</svg>
