<svg xmlns="http://www.w3.org/2000/svg" width="423.669" height="103.035"><path fill="#010101" d="M76.519 14.972c-2.738-2.281-15.76 5.453-20.866 10.074-.002.002-.004.006-.009.008-3.069-1.124-6.107-1.729-8.792-1.729-3.046 0-6.083.616-8.977 1.688-5.15-4.574-18.235-12.187-20.951-9.881-2.501 2.121 2.387 22.271 3.883 24.086l.019.02c-1.616 2.828-2.561 5.74-2.608 8.469-.338 19.294 26.37 25.966 28.634 26.171 2.069.188 28.695-7.986 28.695-25.111 0-3.52-.983-6.799-2.635-9.759 1.542-2.271 6.093-21.966 3.607-24.036zM46.29 60.042c4.873-.096 4.024 1.372 4.024 1.372-4.684-1.587-1.177 3.075-3.695 2.86-1.947-.166.759-4.232-3.526-2.869 0 .001-.531-1.288 3.197-1.363zm-15.327-9.367c-2.593-1.75-3.275-5.604-3.275-5.604s4.367-1.72 6.381-.735c3.822 1.871 4.015 5.695 4.015 5.695-.01-.154-4.22 2.601-7.121.644zm15.5 19.34c-2.194.028-4.697.115-3.667-.12 3.653-.829 3.926-3.47 3.926-3.47.267-.003-.003 2.676 3.736 3.78 1.014.298-1.803-.219-3.995-.19zm14.858-18.938c-2.901 1.958-7.114-.798-7.122-.645 0 0 .193-3.823 4.015-5.694 2.015-.986 6.381.734 6.381.734s-.684 3.856-3.274 5.605z"/><path d="M95.439 29.411h5.089l11.518 22.7h.246l11.295-22.7h4.999v29.598h-4.999V34.746h-.156l-12.143 24.263h-1.027L97.984 34.947h-.335v24.062h-2.21V29.411zm42.298 0l10.268 15 10.223-15h2.701l-11.473 16.808v12.79h-4.979V46.687l-11.83-17.276h5.09zm36.695 0h4.978v13.125l15.58-13.125h3.236L183.45 41.866l18.749 17.143h-6.339l-16.451-15.021v15.021h-4.978V29.411zm44.329 30.29c-2.291 0-4.43-.41-6.417-1.229-1.986-.817-3.713-1.938-5.179-3.358a15.745 15.745 0 0 1-3.459-4.979c-.842-1.896-1.262-3.924-1.262-6.082 0-1.413.189-2.775.569-4.085.38-1.309.919-2.529 1.618-3.66s1.544-2.161 2.533-3.092c.99-.93 2.088-1.726 3.293-2.388s2.511-1.176 3.917-1.541a17.43 17.43 0 0 1 4.386-.547 17.225 17.225 0 0 1 8.314 2.088 15.71 15.71 0 0 1 5.826 5.48 14.59 14.59 0 0 1 2.199 7.745c0 1.443-.19 2.827-.57 4.151a15.134 15.134 0 0 1-1.629 3.728 15.959 15.959 0 0 1-5.826 5.625 16.62 16.62 0 0 1-3.917 1.585 17.024 17.024 0 0 1-4.396.559zm0-1.474c1.697 0 3.195-.354 4.498-1.061 1.302-.706 2.399-1.692 3.293-2.957.893-1.265 1.565-2.761 2.02-4.486.453-1.727.681-3.616.681-5.67 0-2.038-.228-3.906-.681-5.603-.454-1.696-1.127-3.158-2.02-4.386a9.396 9.396 0 0 0-3.293-2.857c-1.303-.677-2.801-1.016-4.498-1.016-1.727 0-3.24.339-4.542 1.016-1.302.678-2.396 1.63-3.281 2.857s-1.552 2.689-1.997 4.386c-.447 1.696-.67 3.564-.67 5.603 0 2.054.223 3.943.67 5.67.445 1.726 1.111 3.222 1.997 4.486s1.979 2.251 3.281 2.957c1.302.708 2.815 1.061 4.542 1.061zm38.035 1.474c-2.292 0-4.431-.41-6.418-1.229-1.986-.817-3.713-1.938-5.178-3.358a15.748 15.748 0 0 1-3.46-4.979c-.841-1.896-1.261-3.924-1.261-6.082a14.626 14.626 0 0 1 2.187-7.745 15.201 15.201 0 0 1 2.533-3.092 16.102 16.102 0 0 1 3.292-2.388 16.955 16.955 0 0 1 3.917-1.541 17.439 17.439 0 0 1 4.387-.547 17.233 17.233 0 0 1 8.314 2.088 15.71 15.71 0 0 1 5.826 5.48 14.5 14.5 0 0 1 1.629 3.66c.379 1.31.569 2.672.569 4.085a15.012 15.012 0 0 1-2.198 7.879 15.995 15.995 0 0 1-5.826 5.625c-1.213.685-2.52 1.213-3.918 1.585s-2.863.559-4.395.559zm0-1.474c1.696 0 3.195-.354 4.498-1.061 1.301-.706 2.398-1.692 3.292-2.957.893-1.265 1.565-2.761 2.021-4.486.453-1.727.68-3.616.68-5.67 0-2.038-.227-3.906-.68-5.603-.455-1.696-1.128-3.158-2.021-4.386a9.401 9.401 0 0 0-3.292-2.857c-1.303-.677-2.802-1.016-4.498-1.016-1.727 0-3.24.339-4.543 1.016a9.3 9.3 0 0 0-3.281 2.857c-.885 1.228-1.551 2.689-1.997 4.386s-.67 3.564-.67 5.603c0 2.054.224 3.943.67 5.67.446 1.726 1.112 3.222 1.997 4.486.886 1.265 1.979 2.251 3.281 2.957 1.303.708 2.816 1.061 4.543 1.061zm23.034-28.816h4.978v27.678h14.91v1.92H279.83V29.411zm38.392 14.91c0 2.069.312 3.926.938 5.569.625 1.645 1.484 3.036 2.578 4.174a11.048 11.048 0 0 0 3.872 2.611c1.487.604 3.103.904 4.844.904a7.774 7.774 0 0 0 3.013-.603 11.484 11.484 0 0 0 2.69-1.573 13.806 13.806 0 0 0 2.221-2.188 13.695 13.695 0 0 0 1.607-2.467l2.099 1.339a19.033 19.033 0 0 1-2.166 2.869c-.834.915-1.797 1.726-2.891 2.433s-2.328 1.269-3.705 1.686c-1.377.416-2.912.625-4.609.625-2.455 0-4.684-.41-6.686-1.229-2.001-.817-3.716-1.927-5.145-3.325-1.428-1.398-2.533-3.032-3.314-4.899s-1.172-3.843-1.172-5.927c0-1.384.179-2.734.535-4.051.357-1.317.875-2.552 1.552-3.705s1.503-2.21 2.478-3.17 2.076-1.785 3.304-2.478 2.57-1.228 4.028-1.607c1.459-.379 3.014-.569 4.666-.569 1.576 0 3.031.213 4.363.637s2.545.985 3.639 1.686a15.157 15.157 0 0 1 2.924 2.421 17.97 17.97 0 0 1 2.199 2.869l-2.166 1.428c-1.235-2.396-2.619-4.147-4.151-5.256s-3.296-1.663-5.29-1.663c-1.711 0-3.312.312-4.799.938a11.476 11.476 0 0 0-3.896 2.679c-1.108 1.16-1.979 2.57-2.611 4.229-.634 1.659-.949 3.53-.949 5.613zm42.877-15.58l13.929 30.268h-5.067l-4.508-9.866h-12.701l-4.665 9.866h-2.5l14.263-30.268h1.249zm-7.477 18.482h10.914l-5.379-11.719-5.535 11.719zm45.668-17.812v1.92h-10.714v27.678h-4.978V31.331h-10.714v-1.92h26.406zM131.229 69.813l6.754 14.677h-2.457l-2.187-4.784h-6.158l-2.263 4.784h-1.212l6.916-14.677h.607zm-3.626 8.962h5.293l-2.609-5.683-2.684 5.683zm16.939-8.638l5.422 11.419 5.033-11.419h1.147l-6.517 14.688H149l-7.003-14.688h2.545zm17.263 14.591a5.344 5.344 0 0 1-2.116-.422 5.55 5.55 0 0 1-1.727-1.147c-.49-.483-.878-1.052-1.163-1.705s-.427-1.348-.427-2.083c0-.888.129-1.709.389-2.463s.628-1.405 1.104-1.954a5.063 5.063 0 0 1 1.716-1.287c.667-.311 1.412-.466 2.234-.466.722 0 1.386.128 1.992.384.605.257 1.127.6 1.563 1.028.437.43.776.926 1.018 1.488.241.563.362 1.151.362 1.765h-8.258c0 .743.096 1.433.287 2.067.19.635.459 1.184.806 1.646.347.461.758.822 1.233 1.082.477.26 1 .39 1.57.39a4.11 4.11 0 0 0 1.375-.232 4.844 4.844 0 0 0 1.195-.612c.357-.252.662-.541.914-.865.253-.325.43-.66.531-1.007l.639.281a5.127 5.127 0 0 1-.77 1.602 6.266 6.266 0 0 1-1.238 1.305 5.994 5.994 0 0 1-1.543.882 4.622 4.622 0 0 1-1.686.323zm2.186-7.75c0-.418-.074-.808-.222-1.169a2.881 2.881 0 0 0-.612-.937 2.89 2.89 0 0 0-.908-.622 2.766 2.766 0 0 0-1.115-.228c-.332 0-.649.074-.953.222a2.669 2.669 0 0 0-.811.617 3.544 3.544 0 0 0-.867 2.106l5.488.011zm7.75-3.777h.336l.292 2.262c.173-.331.39-.635.649-.909.26-.273.547-.512.86-.714s.646-.359.996-.471c.35-.112.705-.168 1.065-.168.325 0 .645.043.959.13.313.087.607.224.881.411l-.691 1.851a2.186 2.186 0 0 0-1.451-.715 6.01 6.01 0 0 0-.52-.021 2.86 2.86 0 0 0-1.559.471 3.032 3.032 0 0 0-.66.595 3.848 3.848 0 0 0-.53.85v7.718h-2.197V73.807l1.57-.606zm7.728 13.908c.087.036.183.083.286.141.105.058.221.114.348.168a2.208 2.208 0 0 0 .925.19c.231 0 .447-.064.649-.194s.387-.293.553-.487c.165-.195.312-.408.443-.639.129-.231.238-.447.324-.649l.747-1.667-5.661-10.564h2.5l4.266 8.01 3.496-8.01h1.18l-5.661 13.032a6.743 6.743 0 0 1-.817 1.407c-.307.396-.633.725-.979.984s-.704.453-1.071.579a3.277 3.277 0 0 1-1.072.189c-.26 0-.512-.039-.758-.119a2.001 2.001 0 0 1-.616-.313l.918-2.058zm26.02-16.972v.931h-7.004v5.131h5.066v.931h-5.066v7.36h-2.413V70.137h9.417zm4.276 14.353h-2.209V68.384l1.57-.628h.639V84.49zm8.572.238a5.344 5.344 0 0 1-2.116-.422c-.66-.282-1.235-.664-1.727-1.147s-.878-1.052-1.163-1.705-.428-1.348-.428-2.083c0-.888.13-1.709.39-2.463s.628-1.405 1.104-1.954a5.06 5.06 0 0 1 1.715-1.287c.668-.311 1.412-.466 2.235-.466.722 0 1.386.128 1.991.384.606.257 1.127.6 1.564 1.028.436.43.775.926 1.018 1.488.241.563.362 1.151.362 1.765h-8.259c0 .743.096 1.433.287 2.067s.46 1.184.807 1.646c.346.461.758.822 1.233 1.082.477.26.999.39 1.569.39.477 0 .935-.077 1.375-.232a4.827 4.827 0 0 0 1.195-.612c.357-.252.662-.541.915-.865.253-.325.429-.66.53-1.007l.639.281a5.103 5.103 0 0 1-.769 1.602 6.27 6.27 0 0 1-1.239 1.305 5.978 5.978 0 0 1-1.543.882 4.613 4.613 0 0 1-1.685.323zm2.185-7.75c0-.418-.074-.808-.221-1.169a2.898 2.898 0 0 0-.612-.937 2.883 2.883 0 0 0-.909-.622 2.759 2.759 0 0 0-1.115-.228c-.332 0-.648.074-.952.222a2.685 2.685 0 0 0-.812.617 3.35 3.35 0 0 0-.59.937 3.543 3.543 0 0 0-.276 1.169l5.487.011zm4.341-3.572h2.598l7.663 11.084h-2.587l-7.674-11.084zm1.201 11.084h-1.201l9.048-11.084h1.213l-9.06 11.084zm11.127-15.326c0-.174.032-.336.098-.487s.155-.285.271-.4.249-.206.4-.271a1.22 1.22 0 0 1 .486-.098 1.253 1.253 0 0 1 .888.369c.115.116.205.249.27.4.065.151.098.313.098.487a1.24 1.24 0 0 1-.368.887 1.243 1.243 0 0 1-.888.368 1.22 1.22 0 0 1-.486-.097c-.151-.065-.285-.155-.4-.271s-.205-.249-.271-.4a1.228 1.228 0 0 1-.098-.487zm.173 4.665l1.549-.628h.638V84.49h-2.187V73.829zm6.235-5.455l1.559-.617h.65v7.739c.18-.311.416-.606.709-.888a5.336 5.336 0 0 1 2.023-1.223 3.416 3.416 0 0 1 1.066-.184c.643 0 1.234.13 1.775.39s1.006.613 1.396 1.061c.389.447.693.969.914 1.564.22.595.33 1.231.33 1.91 0 .916-.16 1.775-.482 2.576a6.603 6.603 0 0 1-1.32 2.094c-.559.596-1.213 1.066-1.964 1.413s-1.552.52-2.403.52a8.057 8.057 0 0 1-2.321-.325 5.792 5.792 0 0 1-1.933-.984V68.374zm2.209 14.308c.137.13.287.264.449.4a3.2 3.2 0 0 0 1.223.645c.249.068.528.103.839.103.513 0 .978-.125 1.396-.373a3.401 3.401 0 0 0 1.078-1.039 5.22 5.22 0 0 0 .692-1.581 7.756 7.756 0 0 0 .243-1.997c0-.548-.084-1.062-.254-1.542s-.4-.898-.693-1.256a3.303 3.303 0 0 0-1.027-.844 2.685 2.685 0 0 0-1.262-.309c-.252 0-.51.036-.773.108s-.514.169-.752.292-.459.266-.66.428a2.469 2.469 0 0 0-.498.524v6.441zm13.561 1.808h-2.208V68.384l1.569-.628h.639V84.49zm8.572.238a5.344 5.344 0 0 1-2.116-.422 5.55 5.55 0 0 1-1.727-1.147c-.49-.483-.878-1.052-1.163-1.705s-.427-1.348-.427-2.083c0-.888.129-1.709.389-2.463s.628-1.405 1.104-1.954a5.063 5.063 0 0 1 1.716-1.287c.667-.311 1.412-.466 2.234-.466.722 0 1.386.128 1.992.384.605.257 1.127.6 1.563 1.028.437.43.776.926 1.018 1.488.241.563.362 1.151.362 1.765h-8.258c0 .743.096 1.433.287 2.067.19.635.459 1.184.806 1.646.347.461.758.822 1.233 1.082.477.26 1 .39 1.57.39a4.11 4.11 0 0 0 1.375-.232 4.844 4.844 0 0 0 1.195-.612c.357-.252.662-.541.914-.865.253-.325.43-.66.531-1.007l.639.281a5.127 5.127 0 0 1-.77 1.602 6.266 6.266 0 0 1-1.238 1.305 5.994 5.994 0 0 1-1.543.882 4.618 4.618 0 0 1-1.686.323zm2.187-7.75c0-.418-.074-.808-.222-1.169a2.881 2.881 0 0 0-.612-.937 2.89 2.89 0 0 0-.908-.622 2.766 2.766 0 0 0-1.115-.228c-.332 0-.649.074-.953.222a2.669 2.669 0 0 0-.811.617 3.544 3.544 0 0 0-.867 2.106l5.488.011zm15.424 6.939c.354 0 .703-.049 1.05-.146s.656-.242.931-.433a2.27 2.27 0 0 0 .66-.704c.166-.277.249-.601.249-.969a2.08 2.08 0 0 0-.341-1.174 3.991 3.991 0 0 0-.893-.942 9.015 9.015 0 0 0-1.262-.806 106.14 106.14 0 0 0-1.445-.758c-.49-.253-.972-.518-1.444-.796a7.075 7.075 0 0 1-1.261-.931 4.454 4.454 0 0 1-.893-1.147c-.229-.422-.342-.907-.342-1.456 0-.548.104-1.057.309-1.525a3.38 3.38 0 0 1 .904-1.218c.396-.343.885-.611 1.467-.807.58-.194 1.246-.292 1.996-.292.679 0 1.285.072 1.818.216a4.479 4.479 0 0 1 1.407.639 4.03 4.03 0 0 1 1.028 1.039c.281.412.509.888.682 1.429l-1.233.563a5.743 5.743 0 0 0-.552-1.207 3.856 3.856 0 0 0-.801-.937c-.311-.26-.67-.46-1.078-.601a4.2 4.2 0 0 0-1.379-.211c-.455 0-.852.063-1.191.189a2.604 2.604 0 0 0-.85.498 2.03 2.03 0 0 0-.508.692 1.925 1.925 0 0 0-.168.785c0 .375.115.72.346 1.033.23.314.537.61.92.888s.817.547 1.305.807c.486.26.982.523 1.488.79.505.267 1.001.545 1.488.833.486.289.922.604 1.305.947.382.343.688.718.92 1.126.23.407.346.864.346 1.369 0 .57-.107 1.105-.324 1.607a3.587 3.587 0 0 1-.975 1.31c-.433.371-.971.665-1.613.882-.642.217-1.389.325-2.24.325-.692 0-1.309-.076-1.851-.228a4.736 4.736 0 0 1-1.435-.66c-.414-.289-.77-.641-1.065-1.056s-.538-.889-.726-1.423l1.288-.53c.151.469.355.887.612 1.255.256.368.553.681.893.937.339.256.716.453 1.131.59s.858.208 1.327.208zm13.442.811a6.078 6.078 0 0 1-2.349-.444c-.715-.295-1.332-.697-1.852-1.206s-.925-1.104-1.217-1.786a5.494 5.494 0 0 1-.438-2.192c0-.814.146-1.582.438-2.3.292-.718.697-1.344 1.217-1.878s1.137-.954 1.852-1.261 1.497-.46 2.349-.46a6.29 6.29 0 0 1 2.333.422 5.74 5.74 0 0 1 1.845 1.158 5.29 5.29 0 0 1 1.218 1.727c.293.66.438 1.369.438 2.127 0 .837-.146 1.625-.438 2.365a6.035 6.035 0 0 1-1.218 1.938 5.792 5.792 0 0 1-1.845 1.31 5.632 5.632 0 0 1-2.333.48zm.422-.811c.433 0 .83-.112 1.19-.336.361-.224.672-.525.932-.903.26-.379.461-.817.605-1.315s.217-1.024.217-1.58c0-.802-.068-1.552-.205-2.252-.138-.699-.361-1.31-.672-1.829s-.715-.929-1.212-1.229c-.498-.299-1.104-.449-1.818-.449-.368 0-.726.106-1.071.319a3.169 3.169 0 0 0-.915.871c-.264.368-.475.8-.634 1.294a5.145 5.145 0 0 0-.238 1.575c0 .808.086 1.565.255 2.272s.419 1.324.747 1.851c.328.527.729.944 1.201 1.251s1.012.46 1.618.46zm10.748.573h-2.208V68.384l1.569-.628h.639V84.49zm6.094-11.084v7.891c0 .274.063.534.189.779.126.246.302.459.524.639.225.181.482.323.774.428s.608.157.947.157c.216 0 .449-.047.698-.141.248-.094.492-.222.73-.385a4.027 4.027 0 0 0 1.19-1.271v-8.097h2.187V84.49h-2.187v-2.078c-.194.317-.438.617-.73.898s-.608.526-.947.736a5.1 5.1 0 0 1-1.05.497 3.187 3.187 0 0 1-1.028.185 3.47 3.47 0 0 1-1.364-.271 3.486 3.486 0 0 1-1.867-1.829 3.272 3.272 0 0 1-.275-1.332v-7.891h2.209zm13.465-3.767h.628v3.767h2.468v.942h-2.468v7.804c0 .166.03.321.092.466.061.144.145.271.249.378.104.108.229.193.374.255.144.062.303.092.476.092.245 0 .469-.062.671-.184.202-.123.379-.274.531-.455l.551.368a3.429 3.429 0 0 1-1.18 1.212c-.482.296-1.082.444-1.797.444-.367 0-.688-.063-.963-.189s-.5-.303-.676-.53a2.297 2.297 0 0 1-.396-.812 3.908 3.908 0 0 1-.13-1.045v-7.804h-1.927v-.411l1.927-.531v-3.149l1.57-.618zm6.471-.475a1.258 1.258 0 0 1 .369-.887c.115-.115.248-.206.4-.271.15-.065.313-.098.486-.098a1.242 1.242 0 0 1 .887.369c.115.116.206.249.271.4s.098.313.098.487a1.242 1.242 0 0 1-.369.887 1.234 1.234 0 0 1-.887.368 1.247 1.247 0 0 1-.886-.368 1.258 1.258 0 0 1-.369-.887zm.174 4.665l1.548-.628h.638V84.49h-2.186V73.829zm11.344 10.899a6.083 6.083 0 0 1-2.35-.444 5.756 5.756 0 0 1-1.851-1.206 5.519 5.519 0 0 1-1.656-3.978c0-.814.146-1.582.438-2.3.293-.718.698-1.344 1.218-1.878s1.137-.954 1.851-1.261a5.893 5.893 0 0 1 2.35-.46c.844 0 1.621.141 2.332.422s1.326.668 1.846 1.158a5.272 5.272 0 0 1 1.656 3.854c0 .837-.146 1.625-.439 2.365a6.015 6.015 0 0 1-1.217 1.938 5.785 5.785 0 0 1-1.846 1.31 5.63 5.63 0 0 1-2.332.48zm.422-.811c.433 0 .83-.112 1.19-.336s.671-.525.931-.903c.26-.379.462-.817.605-1.315a5.621 5.621 0 0 0 .217-1.58c0-.802-.068-1.552-.205-2.252-.137-.699-.361-1.31-.672-1.829a3.504 3.504 0 0 0-1.211-1.229c-.498-.299-1.104-.449-1.818-.449-.369 0-.727.106-1.072.319s-.651.504-.914.871c-.264.368-.475.8-.634 1.294s-.238 1.02-.238 1.575c0 .808.085 1.565.255 2.272.169.707.418 1.324.746 1.851.328.527.729.944 1.201 1.251s1.012.46 1.619.46zm10.119-10.716h.629v2.24c.67-.75 1.367-1.312 2.088-1.683.723-.372 1.455-.558 2.197-.558.391 0 .753.087 1.088.26.336.173.63.411.883.714.252.304.451.659.596 1.066.144.408.216.843.216 1.305v7.944h-2.197v-7.565c0-.368-.043-.691-.13-.969a1.97 1.97 0 0 0-.367-.698c-.16-.188-.346-.33-.559-.428s-.449-.146-.709-.146c-.23 0-.476.04-.735.119-.26.08-.524.189-.796.33a6.374 6.374 0 0 0-.807.504 7.058 7.058 0 0 0-.768.649v8.204h-2.209V73.818l1.58-.617z"/></svg>