<?xml version="1.0" encoding="utf-8"?>
<!-- Generator: Adobe Illustrator 16.0.0, SVG Export Plug-In . SVG Version: 6.00 Build 0)  -->
<!DOCTYPE svg PUBLIC "-//W3C//DTD SVG 1.1//EN" "http://www.w3.org/Graphics/SVG/1.1/DTD/svg11.dtd">
<svg version="1.1" id="Layer_1" xmlns="http://www.w3.org/2000/svg" xmlns:xlink="http://www.w3.org/1999/xlink" x="0px" y="0px"
	 width="168.922px" height="47.763px" viewBox="0 0 168.922 47.763" enable-background="new 0 0 168.922 47.763"
	 xml:space="preserve">
<g>
	<path d="M45.756,8.291c-1.575-1.313-9.072,3.14-12.013,5.801c-0.003,0.001-0.003,0.003-0.006,0.004
		c-1.768-0.647-3.517-0.995-5.062-0.995c-1.755,0-3.504,0.354-5.169,0.972c-2.967-2.633-10.501-7.017-12.064-5.689
		c-1.44,1.222,1.374,12.824,2.236,13.868c0.003,0.004,0.007,0.008,0.01,0.012c-0.931,1.629-1.474,3.305-1.502,4.877
		c-0.193,11.109,15.186,14.951,16.489,15.069c1.189,0.109,16.522-4.599,16.522-14.459c0-2.026-0.566-3.915-1.519-5.619
		C44.568,20.823,47.188,9.483,45.756,8.291z M28.352,34.242c2.806-0.055,2.316,0.79,2.316,0.79
		c-2.696-0.913-0.677,1.771-2.127,1.646c-1.121-0.096,0.437-2.437-2.031-1.651C26.51,35.027,26.205,34.285,28.352,34.242z
		 M19.525,28.849c-1.493-1.009-1.886-3.227-1.886-3.227s2.516-0.99,3.675-0.423c2.201,1.077,2.311,3.279,2.311,3.279
		C23.621,28.39,21.196,29.977,19.525,28.849z M28.451,39.985c-1.264,0.017-2.705,0.065-2.112-0.069
		c2.104-0.479,2.261-1.999,2.261-1.999c0.153-0.001-0.002,1.541,2.151,2.178C31.334,40.266,29.714,39.967,28.451,39.985z
		 M37.006,29.08c-1.67,1.127-4.096-0.46-4.1-0.372c0,0,0.111-2.2,2.312-3.278c1.16-0.568,3.675,0.423,3.675,0.423
		S38.498,28.072,37.006,29.08z"/>
	<g>
		<path d="M52.105,9.437h5.107l11.561,22.785h0.247L80.356,9.437h5.019v29.708h-5.019V14.791h-0.157L68.012,39.145h-1.03
			L54.659,14.993h-0.336v24.151h-2.218V9.437z"/>
		<path d="M93.44,9.437h4.995V22.61l15.639-13.174h3.248l-14.831,12.502l18.819,17.206h-6.363L98.436,24.066v15.078H93.44V9.437z"/>
		<path d="M130.115,24.402c0,2.076,0.313,3.939,0.94,5.59s1.49,3.047,2.588,4.189s2.393,2.017,3.887,2.621
			c1.493,0.605,3.114,0.908,4.862,0.908c1.045,0,2.053-0.202,3.023-0.605c0.972-0.403,1.871-0.93,2.7-1.579
			c0.829-0.65,1.572-1.382,2.229-2.196c0.656-0.813,1.194-1.639,1.613-2.476l2.105,1.345c-0.613,1-1.337,1.96-2.173,2.879
			c-0.837,0.918-1.804,1.732-2.901,2.441c-1.099,0.71-2.338,1.273-3.72,1.692c-1.381,0.417-2.923,0.627-4.626,0.627
			c-2.464,0-4.701-0.411-6.71-1.232s-3.73-1.935-5.164-3.338c-1.435-1.404-2.543-3.043-3.327-4.918
			c-0.784-1.874-1.176-3.856-1.176-5.948c0-1.389,0.18-2.744,0.537-4.066c0.358-1.321,0.877-2.561,1.558-3.719
			c0.679-1.157,1.509-2.219,2.487-3.182c0.978-0.963,2.083-1.792,3.315-2.486s2.579-1.232,4.043-1.613s3.025-0.571,4.683-0.571
			c1.584,0,3.043,0.213,4.38,0.639s2.555,0.989,3.652,1.691s2.076,1.512,2.935,2.431c0.859,0.919,1.594,1.879,2.207,2.879
			l-2.173,1.434c-1.24-2.404-2.629-4.163-4.167-5.275c-1.539-1.113-3.309-1.669-5.311-1.669c-1.718,0-3.323,0.313-4.816,0.94
			c-1.494,0.627-2.797,1.523-3.909,2.688c-1.113,1.165-1.987,2.58-2.622,4.245C130.432,20.434,130.115,22.312,130.115,24.402z"/>
	</g>
</g>
</svg>
