<svg xmlns="http://www.w3.org/2000/svg" width="168.922" height="47.763"><path d="M45.756 8.291c-1.575-1.313-9.072 3.14-12.013 5.801l-.006.004c-1.768-.647-3.517-.995-5.062-.995-1.755 0-3.504.354-5.169.972-2.967-2.633-10.501-7.017-12.064-5.689-1.44 1.222 1.374 12.824 2.236 13.868l.01.012c-.931 1.629-1.474 3.305-1.502 4.877-.193 11.109 15.186 14.951 16.489 15.069 1.189.109 16.522-4.599 16.522-14.459 0-2.026-.566-3.915-1.519-5.619.89-1.309 3.51-12.649 2.078-13.841zM28.352 34.242c2.806-.055 2.316.79 2.316.79-2.696-.913-.677 1.771-2.127 1.646-1.121-.096.437-2.437-2.031-1.651 0 0-.305-.742 1.842-.785zm-8.827-5.393c-1.493-1.009-1.886-3.227-1.886-3.227s2.516-.99 3.675-.423c2.201 1.077 2.311 3.279 2.311 3.279-.004-.088-2.429 1.499-4.1.371zm8.926 11.136c-1.264.017-2.705.065-2.112-.069 2.104-.479 2.261-1.999 2.261-1.999.153-.001-.002 1.541 2.151 2.178.583.171-1.037-.128-2.3-.11zm8.555-10.905c-1.67 1.127-4.096-.46-4.1-.372 0 0 .111-2.2 2.312-3.278 1.16-.568 3.675.423 3.675.423s-.395 2.219-1.887 3.227zM52.105 9.437h5.107l11.561 22.785h.247L80.356 9.437h5.019v29.708h-5.019V14.791h-.157L68.012 39.145h-1.03L54.659 14.993h-.336v24.151h-2.218V9.437zm41.335 0h4.995V22.61l15.639-13.174h3.248l-14.831 12.502 18.819 17.206h-6.363L98.436 24.066v15.078H93.44V9.437zm36.675 14.965c0 2.076.313 3.939.94 5.59s1.49 3.047 2.588 4.189 2.393 2.017 3.887 2.621c1.493.605 3.114.908 4.862.908a7.806 7.806 0 0 0 3.023-.605c.972-.403 1.871-.93 2.7-1.579a13.784 13.784 0 0 0 2.229-2.196 13.78 13.78 0 0 0 1.613-2.476l2.105 1.345c-.613 1-1.337 1.96-2.173 2.879a14.698 14.698 0 0 1-2.901 2.441c-1.099.71-2.338 1.273-3.72 1.692-1.381.417-2.923.627-4.626.627-2.464 0-4.701-.411-6.71-1.232s-3.73-1.935-5.164-3.338a14.783 14.783 0 0 1-3.327-4.918 15.254 15.254 0 0 1-1.176-5.948c0-1.389.18-2.744.537-4.066a15.084 15.084 0 0 1 1.558-3.719 15.379 15.379 0 0 1 2.487-3.182c.978-.963 2.083-1.792 3.315-2.486s2.579-1.232 4.043-1.613 3.025-.571 4.683-.571c1.584 0 3.043.213 4.38.639s2.555.989 3.652 1.691 2.076 1.512 2.935 2.431a17.98 17.98 0 0 1 2.207 2.879l-2.173 1.434c-1.24-2.404-2.629-4.163-4.167-5.275-1.539-1.113-3.309-1.669-5.311-1.669-1.718 0-3.323.313-4.816.94a11.494 11.494 0 0 0-3.909 2.688c-1.113 1.165-1.987 2.58-2.622 4.245-.632 1.666-.949 3.544-.949 5.634z"/></svg>